<svg width="40" height="40" viewBox="0 0 530 530" fill="none" xmlns="http://www.w3.org/2000/svg">
<path d="M412.875 128H117.125C98.278 128 83 143.278 83 162.125V366.875C83 385.722 98.278 401 117.125 401H412.875C431.722 401 447 385.722 447 366.875V162.125C447 143.278 431.722 128 412.875 128ZM412.875 162.125V191.135C396.934 204.116 371.521 224.301 317.192 266.843C305.219 276.26 281.502 298.886 265 298.622C248.501 298.889 224.776 276.257 212.808 266.843C158.487 224.307 133.068 204.118 117.125 191.135V162.125H412.875ZM117.125 366.875V234.924C133.415 247.899 156.517 266.107 191.729 293.68C207.268 305.911 234.481 332.914 265 332.749C295.369 332.914 322.237 306.303 338.264 293.685C373.476 266.113 396.584 247.9 412.875 234.924V366.875H117.125Z" fill="#1D547B"/>
<circle cx="265" cy="265" r="255" stroke="#1D547B" stroke-width="20"/>
</svg>
